<svg width="205" height="51" viewBox="0 0 205 51" fill="none" xmlns="http://www.w3.org/2000/svg">
<rect width="205" height="51" />
<path d="M1.024 38V4.4H16.816C19.088 4.4 21.072 4.784 22.768 5.552C24.464 6.32 25.792 7.408 26.752 8.816C27.712 10.192 28.192 11.792 28.192 13.616C28.192 15.088 27.808 16.448 27.04 17.696C26.304 18.912 25.296 19.904 24.016 20.672C25.648 21.44 26.944 22.48 27.904 23.792C28.864 25.104 29.344 26.592 29.344 28.256C29.344 30.176 28.848 31.872 27.856 33.344C26.896 34.816 25.52 35.968 23.728 36.8C21.968 37.6 19.92 38 17.584 38H1.024ZM7.984 18.128H16.384C17.888 18.128 19.072 17.776 19.936 17.072C20.832 16.336 21.28 15.36 21.28 14.144C21.28 12.928 20.832 11.968 19.936 11.264C19.072 10.528 17.888 10.16 16.384 10.16H7.984V18.128ZM7.984 32.24H17.056C18.656 32.24 19.936 31.856 20.896 31.088C21.856 30.288 22.336 29.232 22.336 27.92C22.336 26.576 21.856 25.52 20.896 24.752C19.936 23.952 18.656 23.552 17.056 23.552H7.984V32.24ZM33.7795 38V4.4L40.3555 3.296V38H33.7795ZM57.6903 38.48C55.1943 38.48 52.9383 37.904 50.9223 36.752C48.9063 35.6 47.3063 34.048 46.1223 32.096C44.9383 30.144 44.3463 27.952 44.3463 25.52C44.3463 23.088 44.9223 20.896 46.0742 18.944C47.2583 16.96 48.8583 15.392 50.8743 14.24C52.9223 13.088 55.1943 12.512 57.6903 12.512C60.1863 12.512 62.4423 13.088 64.4583 14.24C66.5063 15.392 68.1063 16.96 69.2583 18.944C70.4423 20.896 71.0343 23.088 71.0343 25.52C71.0343 27.952 70.4423 30.144 69.2583 32.096C68.1063 34.048 66.5223 35.6 64.5063 36.752C62.4903 37.904 60.2183 38.48 57.6903 38.48ZM57.6903 32.768C59.0023 32.768 60.1703 32.448 61.1943 31.808C62.2503 31.168 63.0823 30.304 63.6903 29.216C64.3303 28.096 64.6503 26.864 64.6503 25.52C64.6503 24.144 64.3303 22.912 63.6903 21.824C63.0823 20.736 62.2503 19.872 61.1943 19.232C60.1703 18.56 59.0023 18.224 57.6903 18.224C56.4103 18.224 55.2423 18.56 54.1863 19.232C53.1303 19.872 52.2983 20.736 51.6903 21.824C51.0823 22.912 50.7783 24.144 50.7783 25.52C50.7783 26.864 51.0823 28.096 51.6903 29.216C52.2983 30.304 53.1303 31.168 54.1863 31.808C55.2423 32.448 56.4103 32.768 57.6903 32.768ZM87.6524 48.272C85.7324 48.272 83.8764 48.064 82.0844 47.648C80.2924 47.264 78.6764 46.704 77.2364 45.968L79.5404 40.88C80.9164 41.552 82.2604 42.048 83.5724 42.368C84.8844 42.688 86.1964 42.848 87.5084 42.848C89.4604 42.848 90.9324 42.432 91.9244 41.6C92.9484 40.768 93.4604 39.52 93.4604 37.856V35.888C91.4124 37.392 89.1244 38.144 86.5964 38.144C84.2284 38.144 82.0844 37.584 80.1644 36.464C78.2764 35.312 76.7564 33.76 75.6044 31.808C74.4844 29.856 73.9244 27.696 73.9244 25.328C73.9244 22.96 74.4844 20.816 75.6044 18.896C76.7564 16.976 78.3084 15.456 80.2604 14.336C82.2124 13.184 84.3884 12.608 86.7884 12.608C88.0044 12.608 89.1884 12.784 90.3404 13.136C91.4924 13.488 92.5644 13.984 93.5564 14.624V12.992H100.036V37.952C100.036 41.248 98.9644 43.792 96.8204 45.584C94.7084 47.376 91.6524 48.272 87.6524 48.272ZM87.6044 32.576C88.8204 32.576 89.9244 32.384 90.9164 32C91.9084 31.584 92.7564 31.008 93.4604 30.272V20.48C92.7564 19.776 91.8924 19.232 90.8684 18.848C89.8764 18.432 88.8044 18.224 87.6524 18.224C86.2764 18.224 85.0444 18.544 83.9564 19.184C82.8684 19.792 82.0044 20.64 81.3644 21.728C80.7244 22.784 80.4044 23.984 80.4044 25.328C80.4044 26.704 80.7084 27.936 81.3164 29.024C81.9564 30.112 82.8204 30.976 83.9084 31.616C85.0284 32.256 86.2604 32.576 87.6044 32.576ZM117.026 38.384C114.242 38.384 112.13 37.76 110.69 36.512C109.282 35.232 108.578 33.376 108.578 30.944V18.464H103.442V12.992H108.578V6.608L115.154 5.12V12.992H122.306V18.464H115.154V29.6C115.154 30.752 115.41 31.584 115.922 32.096C116.434 32.576 117.33 32.816 118.61 32.816C119.25 32.816 119.826 32.784 120.338 32.72C120.882 32.624 121.474 32.464 122.114 32.24V37.664C121.442 37.888 120.594 38.064 119.57 38.192C118.578 38.32 117.73 38.384 117.026 38.384ZM137.473 38.48C134.977 38.48 132.705 37.904 130.657 36.752C128.641 35.6 127.041 34.048 125.857 32.096C124.673 30.144 124.081 27.952 124.081 25.52C124.081 23.088 124.641 20.896 125.761 18.944C126.913 16.992 128.465 15.44 130.417 14.288C132.369 13.136 134.545 12.56 136.945 12.56C139.345 12.56 141.473 13.152 143.329 14.336C145.185 15.52 146.641 17.12 147.697 19.136C148.785 21.152 149.329 23.44 149.329 26V27.728H130.801C131.089 28.72 131.553 29.616 132.193 30.416C132.865 31.216 133.681 31.84 134.641 32.288C135.633 32.736 136.689 32.96 137.809 32.96C138.929 32.96 139.953 32.784 140.881 32.432C141.841 32.08 142.657 31.584 143.329 30.944L147.649 34.88C146.113 36.128 144.529 37.04 142.897 37.616C141.297 38.192 139.489 38.48 137.473 38.48ZM130.705 23.024H142.849C142.625 22.032 142.209 21.168 141.601 20.432C141.025 19.664 140.321 19.072 139.489 18.656C138.689 18.208 137.793 17.984 136.801 17.984C135.777 17.984 134.849 18.192 134.017 18.608C133.185 19.024 132.481 19.616 131.905 20.384C131.361 21.12 130.961 22 130.705 23.024ZM165.497 38.48C163.033 38.48 160.809 37.92 158.825 36.8C156.841 35.648 155.273 34.096 154.121 32.144C152.969 30.16 152.393 27.952 152.393 25.52C152.393 23.056 152.969 20.848 154.121 18.896C155.273 16.944 156.841 15.392 158.825 14.24C160.809 13.088 163.033 12.512 165.497 12.512C167.481 12.512 169.369 12.896 171.161 13.664C172.985 14.432 174.553 15.536 175.865 16.976L171.833 21.248C170.905 20.224 169.929 19.472 168.905 18.992C167.913 18.48 166.825 18.224 165.641 18.224C164.361 18.224 163.209 18.544 162.185 19.184C161.193 19.824 160.393 20.688 159.785 21.776C159.209 22.864 158.921 24.112 158.921 25.52C158.921 26.864 159.209 28.096 159.785 29.216C160.393 30.304 161.225 31.168 162.281 31.808C163.337 32.416 164.505 32.72 165.785 32.72C166.905 32.72 167.945 32.496 168.905 32.048C169.897 31.568 170.841 30.864 171.737 29.936L175.673 34.064C174.393 35.44 172.857 36.528 171.065 37.328C169.273 38.096 167.417 38.48 165.497 38.48ZM179.092 38V4.4L185.668 2.96V15.056C187.556 13.36 189.892 12.512 192.676 12.512C194.628 12.512 196.34 12.944 197.812 13.808C199.316 14.64 200.484 15.808 201.316 17.312C202.148 18.784 202.564 20.512 202.564 22.496V38H195.988V23.456C195.988 21.824 195.524 20.544 194.596 19.616C193.668 18.656 192.404 18.176 190.804 18.176C189.684 18.176 188.692 18.4 187.828 18.848C186.964 19.264 186.244 19.872 185.668 20.672V38H179.092Z" fill="white"/>
</svg>
