<svg width="110" height="37" viewBox="0 0 110 37" fill="none" xmlns="http://www.w3.org/2000/svg">
<path d="M0.024 36V2.4H15.816C18.088 2.4 20.072 2.784 21.768 3.552C23.464 4.32 24.792 5.408 25.752 6.816C26.712 8.192 27.192 9.792 27.192 11.616C27.192 13.088 26.808 14.448 26.04 15.696C25.304 16.912 24.296 17.904 23.016 18.672C24.648 19.44 25.944 20.48 26.904 21.792C27.864 23.104 28.344 24.592 28.344 26.256C28.344 28.176 27.848 29.872 26.856 31.344C25.896 32.816 24.52 33.968 22.728 34.8C20.968 35.6 18.92 36 16.584 36H0.024ZM6.984 16.128H15.384C16.888 16.128 18.072 15.776 18.936 15.072C19.832 14.336 20.28 13.36 20.28 12.144C20.28 10.928 19.832 9.968 18.936 9.264C18.072 8.528 16.888 8.16 15.384 8.16H6.984V16.128ZM6.984 30.24H16.056C17.656 30.24 18.936 29.856 19.896 29.088C20.856 28.288 21.336 27.232 21.336 25.92C21.336 24.576 20.856 23.52 19.896 22.752C18.936 21.952 17.656 21.552 16.056 21.552H6.984V30.24ZM44.5508 36.48C42.0548 36.48 39.7828 35.904 37.7348 34.752C35.7188 33.6 34.1188 32.048 32.9348 30.096C31.7508 28.144 31.1588 25.952 31.1588 23.52C31.1588 21.088 31.7188 18.896 32.8388 16.944C33.9908 14.992 35.5428 13.44 37.4948 12.288C39.4468 11.136 41.6228 10.56 44.0228 10.56C46.4228 10.56 48.5508 11.152 50.4068 12.336C52.2628 13.52 53.7188 15.12 54.7748 17.136C55.8628 19.152 56.4068 21.44 56.4068 24V25.728H37.8788C38.1668 26.72 38.6308 27.616 39.2708 28.416C39.9428 29.216 40.7588 29.84 41.7188 30.288C42.7108 30.736 43.7668 30.96 44.8868 30.96C46.0068 30.96 47.0308 30.784 47.9588 30.432C48.9188 30.08 49.7348 29.584 50.4068 28.944L54.7268 32.88C53.1908 34.128 51.6068 35.04 49.9748 35.616C48.3748 36.192 46.5668 36.48 44.5508 36.48ZM37.7828 21.024H49.9268C49.7028 20.032 49.2868 19.168 48.6788 18.432C48.1028 17.664 47.3988 17.072 46.5668 16.656C45.7668 16.208 44.8708 15.984 43.8788 15.984C42.8548 15.984 41.9268 16.192 41.0948 16.608C40.2628 17.024 39.5588 17.616 38.9828 18.384C38.4388 19.12 38.0388 20 37.7828 21.024ZM72.5753 36.48C70.1113 36.48 67.8873 35.92 65.9033 34.8C63.9193 33.648 62.3513 32.096 61.1992 30.144C60.0473 28.16 59.4713 25.952 59.4713 23.52C59.4713 21.056 60.0473 18.848 61.1992 16.896C62.3513 14.944 63.9193 13.392 65.9033 12.24C67.8873 11.088 70.1113 10.512 72.5753 10.512C74.5593 10.512 76.4473 10.896 78.2393 11.664C80.0633 12.432 81.6313 13.536 82.9433 14.976L78.9113 19.248C77.9833 18.224 77.0073 17.472 75.9833 16.992C74.9913 16.48 73.9033 16.224 72.7193 16.224C71.4393 16.224 70.2873 16.544 69.2633 17.184C68.2713 17.824 67.4713 18.688 66.8633 19.776C66.2873 20.864 65.9993 22.112 65.9993 23.52C65.9993 24.864 66.2873 26.096 66.8633 27.216C67.4713 28.304 68.3033 29.168 69.3593 29.808C70.4153 30.416 71.5833 30.72 72.8633 30.72C73.9833 30.72 75.0233 30.496 75.9833 30.048C76.9753 29.568 77.9193 28.864 78.8153 27.936L82.7513 32.064C81.4713 33.44 79.9353 34.528 78.1433 35.328C76.3513 36.096 74.4953 36.48 72.5753 36.48ZM86.1701 36V2.4L92.7461 0.959999V13.056C94.6341 11.36 96.9701 10.512 99.7541 10.512C101.706 10.512 103.418 10.944 104.89 11.808C106.394 12.64 107.562 13.808 108.394 15.312C109.226 16.784 109.642 18.512 109.642 20.496V36H103.066V21.456C103.066 19.824 102.602 18.544 101.674 17.616C100.746 16.656 99.4821 16.176 97.8821 16.176C96.7621 16.176 95.7701 16.4 94.9061 16.848C94.0421 17.264 93.3221 17.872 92.7461 18.672V36H86.1701Z" fill="white"/>
</svg>
